<svg width="72" height="73" viewBox="0 0 72 73" fill="none" xmlns="http://www.w3.org/2000/svg">
<circle cx="36" cy="36" r="36" fill="#55EBBF"/>
<path d="M26.656 46.416C29.728 43.856 32.176 41.728 34 40.032C35.824 38.304 37.344 36.512 38.56 34.656C39.776 32.8 40.384 30.976 40.384 29.184C40.384 27.552 40 26.272 39.232 25.344C38.464 24.416 37.28 23.952 35.68 23.952C34.08 23.952 32.848 24.496 31.984 25.584C31.12 26.64 30.672 28.096 30.64 29.952H24.112C24.24 26.112 25.376 23.2 27.52 21.216C29.696 19.232 32.448 18.24 35.776 18.24C39.424 18.24 42.224 19.216 44.176 21.168C46.128 23.088 47.104 25.632 47.104 28.8C47.104 31.296 46.432 33.68 45.088 35.952C43.744 38.224 42.208 40.208 40.48 41.904C38.752 43.568 36.496 45.584 33.712 47.952H47.872V53.52H24.16V48.528L26.656 46.416Z" fill="white"/>
</svg>
