<svg width="72" height="72" viewBox="0 0 72 72" fill="none" xmlns="http://www.w3.org/2000/svg">
<circle cx="36" cy="36" r="36" fill="#55EBBF"/>
<path d="M23.64 27.224C23.8 24.024 24.92 21.56 27 19.832C29.112 18.072 31.88 17.192 35.304 17.192C37.64 17.192 39.64 17.608 41.304 18.44C42.968 19.24 44.216 20.344 45.048 21.752C45.912 23.128 46.344 24.696 46.344 26.456C46.344 28.472 45.816 30.184 44.76 31.592C43.736 32.968 42.504 33.896 41.064 34.376V34.568C42.92 35.144 44.36 36.168 45.384 37.64C46.44 39.112 46.968 41 46.968 43.304C46.968 45.224 46.52 46.936 45.624 48.44C44.76 49.944 43.464 51.128 41.736 51.992C40.04 52.824 37.992 53.24 35.592 53.24C31.976 53.24 29.032 52.328 26.76 50.504C24.488 48.68 23.288 45.992 23.16 42.44H29.688C29.752 44.008 30.28 45.272 31.272 46.232C32.296 47.16 33.688 47.624 35.448 47.624C37.08 47.624 38.328 47.176 39.192 46.28C40.088 45.352 40.536 44.168 40.536 42.728C40.536 40.808 39.928 39.432 38.712 38.6C37.496 37.768 35.608 37.352 33.048 37.352H31.656V31.832H33.048C37.592 31.832 39.864 30.312 39.864 27.272C39.864 25.896 39.448 24.824 38.616 24.056C37.816 23.288 36.648 22.904 35.112 22.904C33.608 22.904 32.44 23.32 31.608 24.152C30.808 24.952 30.344 25.976 30.216 27.224H23.64Z" fill="white"/>
</svg>
