<svg width="152" height="152" viewBox="0 0 152 152" fill="none" xmlns="http://www.w3.org/2000/svg">
<path d="M9.5 51.0625C14.7467 51.0625 19 46.8092 19 41.5625C19 36.3158 14.7467 32.0625 9.5 32.0625C4.25329 32.0625 0 36.3158 0 41.5625C0 46.8092 4.25329 51.0625 9.5 51.0625Z" fill="#2099F2"/>
<path d="M68.875 133C74.1217 133 78.375 128.747 78.375 123.5C78.375 118.253 74.1217 114 68.875 114C63.6283 114 59.375 118.253 59.375 123.5C59.375 128.747 63.6283 133 68.875 133Z" fill="#2099F2"/>
<path d="M61.75 83.125C66.9967 83.125 71.25 78.8717 71.25 73.625C71.25 68.3783 66.9967 64.125 61.75 64.125C56.5033 64.125 52.25 68.3783 52.25 73.625C52.25 78.8717 56.5033 83.125 61.75 83.125Z" fill="#2099F2"/>
<path d="M99.75 106.875C104.997 106.875 109.25 102.622 109.25 97.375C109.25 92.1283 104.997 87.875 99.75 87.875C94.5033 87.875 90.25 92.1283 90.25 97.375C90.25 102.622 94.5033 106.875 99.75 106.875Z" fill="#2099F2"/>
<path d="M131.812 125.875C137.059 125.875 141.312 121.622 141.312 116.375C141.312 111.128 137.059 106.875 131.812 106.875C126.566 106.875 122.312 111.128 122.312 116.375C122.312 121.622 126.566 125.875 131.812 125.875Z" fill="#2099F2"/>
<path d="M19 117.562C24.2467 117.562 28.5 113.309 28.5 108.062C28.5 102.816 24.2467 98.5625 19 98.5625C13.7533 98.5625 9.5 102.816 9.5 108.062C9.5 113.309 13.7533 117.562 19 117.562Z" fill="#2099F2"/>
<path d="M142.5 68.875C147.747 68.875 152 64.6217 152 59.375C152 54.1283 147.747 49.875 142.5 49.875C137.253 49.875 133 54.1283 133 59.375C133 64.6217 137.253 68.875 142.5 68.875Z" fill="#2099F2"/>
<path d="M114 38C119.247 38 123.5 33.7467 123.5 28.5C123.5 23.2533 119.247 19 114 19C108.753 19 104.5 23.2533 104.5 28.5C104.5 33.7467 108.753 38 114 38Z" fill="#2099F2"/>
<path d="M110.684 106.499L118.522 111.276C119.093 109.787 119.911 108.404 120.94 107.186L113.071 102.391C112.511 103.884 111.704 105.273 110.684 106.499V106.499ZM130.352 66.7849L124.956 71.4744L119.063 41.8035C117.574 42.3726 115.999 42.6858 114.405 42.7298L120.826 75.063L108.267 85.9761C109.547 86.9291 110.66 88.0889 111.56 89.408L121.891 80.4305L126.413 103.195C127.889 102.592 129.457 102.244 131.05 102.164L126.021 76.8407L133.457 70.3795C132.229 69.3622 131.18 68.1473 130.352 66.7849V66.7849ZM80.9636 115.995L90.2261 107.945C89.0381 106.88 88.0363 105.623 87.2621 104.228L77.8263 112.428C79.0629 113.434 80.1233 114.639 80.9636 115.994V115.995ZM101.777 35.7888L70.5148 62.4126C71.7709 63.3963 72.8542 64.5826 73.7199 65.9228L104.85 39.4107C103.632 38.3826 102.593 37.1585 101.777 35.7888V35.7888ZM89.193 87.837L74.8943 79.1207C74.2724 80.5893 73.4086 81.9433 72.3388 83.1261L86.6221 91.8317C87.2498 90.3658 88.1189 89.0155 89.193 87.837ZM19.9641 51.2026L48.4451 68.5626C49.0115 67.0722 49.8239 65.6873 50.8486 64.4658L22.5695 47.2268C21.9296 48.6879 21.0494 50.0313 19.9653 51.2014L19.9641 51.2026ZM40.1588 88.2656L28.9108 97.8464C30.0569 98.9607 31.0082 100.259 31.7251 101.688L42.9613 92.1191L58.6066 113.645C59.7106 112.495 60.999 111.538 62.4184 110.813L46.5891 89.0304L52.2475 84.2127C51.0583 83.1496 50.0549 81.8954 49.2788 80.5018L43.7889 85.1769L19.4749 51.7239C18.3344 52.8388 17.0155 53.7552 15.5728 54.4349L40.1588 88.2656Z" fill="#2099F2"/>
</svg>
