<svg width="208" height="122" viewBox="0 0 208 122" fill="none" xmlns="http://www.w3.org/2000/svg">
<path d="M0 61C0 63.3156 0.913094 65.5363 2.53841 67.1737C4.16372 68.811 6.36812 69.7309 8.66667 69.7309H178.412L141.215 107.204C139.636 108.85 138.762 111.056 138.782 113.345C138.802 115.634 139.713 117.824 141.32 119.443C142.927 121.062 145.101 121.98 147.373 122C149.646 122.02 151.835 121.14 153.469 119.549L205.469 67.164C206.271 66.3608 206.908 65.4058 207.342 64.3539C207.776 63.3021 208 62.1741 208 61.0349V61C208 59.865 207.775 58.73 207.324 57.6648C206.892 56.6063 206.256 55.6448 205.452 54.836L153.452 2.45086C151.817 0.860459 149.628 -0.0195625 147.356 0.00033005C145.083 0.0202226 142.91 0.938436 141.303 2.55721C139.696 4.17598 138.785 6.36579 138.765 8.65499C138.745 10.9442 139.619 13.1496 141.197 14.7963L178.412 52.2691H8.66667C6.36812 52.2691 4.16372 53.189 2.53841 54.8264C0.913094 56.4637 0 58.6844 0 61V61Z" fill="white"/>
</svg>
