<svg width="1440" height="6814" viewBox="0 0 1440 6814" fill="none" xmlns="http://www.w3.org/2000/svg">
<g clip-path="url(#clip0_362_1259)">
<rect width="1440" height="6814" fill="white"/>
<rect y="4355" width="1440" height="914" fill="#D9D9D9" fill-opacity="0.24"/>
<path d="M0 3362V2514L1439 2830V3632L0 3362Z" fill="#2099F2" fill-opacity="0.4"/>
<path d="M0 1004V-2H1440V317.64L0 1004Z" fill="#144068" stroke="white"/>
<rect x="33.5259" y="173.921" width="327.974" height="349.617" transform="rotate(43.0005 33.5259 173.921)" stroke="#2099F2"/>
<g filter="url(#filter0_f_362_1259)">
<rect x="33.9189" y="309.715" width="142.175" height="151.529" transform="rotate(43.0005 33.9189 309.715)" fill="#101B4C"/>
<rect x="33.9436" y="310.422" width="141.175" height="150.529" transform="rotate(43.0005 33.9436 310.422)" stroke="#2099F2"/>
</g>
<rect x="33.7673" y="252.808" width="220.018" height="234.559" transform="rotate(43.0005 33.7673 252.808)" stroke="#2099F2"/>
<g filter="url(#filter1_f_362_1259)">
<rect x="35.9675" y="185.379" width="308.774" height="330.417" transform="rotate(43.0005 35.9675 185.379)" fill="#2099F2"/>
<rect x="35.9922" y="186.086" width="307.774" height="329.417" transform="rotate(43.0005 35.9922 186.086)" stroke="#2099F2"/>
</g>
<rect x="971.147" y="-128.293" width="327.974" height="349.617" transform="rotate(43.0005 971.147 -128.293)" stroke="#2099F2"/>
<g filter="url(#filter2_f_362_1259)">
<rect x="971.541" y="7.50055" width="142.175" height="151.529" transform="rotate(43.0005 971.541 7.50055)" fill="#101B4C"/>
<rect x="971.565" y="8.20723" width="141.175" height="150.529" transform="rotate(43.0005 971.565 8.20723)" stroke="#2099F2"/>
</g>
<rect x="971.389" y="-49.4062" width="220.018" height="234.559" transform="rotate(43.0005 971.389 -49.4062)" stroke="#2099F2"/>
<g filter="url(#filter3_f_362_1259)">
<rect x="973.589" y="-116.835" width="308.774" height="330.417" transform="rotate(43.0005 973.589 -116.835)" fill="#2099F2"/>
<rect x="973.614" y="-116.129" width="307.774" height="329.417" transform="rotate(43.0005 973.614 -116.129)" stroke="#2099F2"/>
</g>
<rect x="1150.15" y="641.707" width="327.974" height="349.617" transform="rotate(43.0005 1150.15 641.707)" stroke="#2099F2"/>
<g filter="url(#filter4_f_362_1259)">
<rect x="1150.54" y="777.501" width="142.175" height="151.529" transform="rotate(43.0005 1150.54 777.501)" fill="#101B4C"/>
<rect x="1150.57" y="778.207" width="141.175" height="150.529" transform="rotate(43.0005 1150.57 778.207)" stroke="#2099F2"/>
</g>
<rect x="1150.39" y="720.594" width="220.018" height="234.559" transform="rotate(43.0005 1150.39 720.594)" stroke="#2099F2"/>
<g filter="url(#filter5_f_362_1259)">
<rect x="1152.59" y="653.165" width="308.774" height="330.417" transform="rotate(43.0005 1152.59 653.165)" fill="#2099F2"/>
<rect x="1152.61" y="653.871" width="307.774" height="329.417" transform="rotate(43.0005 1152.61 653.871)" stroke="#2099F2"/>
</g>
<rect x="-0.102388" y="0.706034" width="394.648" height="421.206" transform="matrix(0.591095 0.806602 -0.795872 0.605465 1317.65 1734.12)" stroke="#2099F2"/>
<rect x="-0.102388" y="0.706034" width="264.812" height="282.655" transform="matrix(0.591095 0.806602 -0.795872 0.605465 1300.89 1828.43)" stroke="#2099F2"/>
<rect x="-0.102388" y="0.706034" width="394.648" height="421.206" transform="matrix(0.591095 0.806602 -0.795872 0.605465 1302.54 3010.36)" stroke="#2099F2"/>
<rect x="-0.102388" y="0.706034" width="264.812" height="282.655" transform="matrix(0.591095 0.806602 -0.795872 0.605465 1285.78 3104.67)" stroke="#2099F2"/>
<rect x="-0.102388" y="0.706034" width="394.648" height="421.206" transform="matrix(0.591095 0.806602 -0.795872 0.605465 1198.54 3957.36)" stroke="#2099F2"/>
<rect x="-0.102388" y="0.706034" width="264.812" height="282.655" transform="matrix(0.591095 0.806602 -0.795872 0.605465 1181.78 4051.67)" stroke="#2099F2"/>
<path d="M791.56 1888.1C791.2 1887.41 790.7 1886.89 790.06 1886.54C789.42 1886.18 788.68 1886 787.84 1886C786.92 1886 786.1 1886.21 785.38 1886.62C784.66 1887.03 784.093 1887.62 783.68 1888.38C783.28 1889.14 783.08 1890.02 783.08 1891.02C783.08 1892.02 783.28 1892.91 783.68 1893.68C784.093 1894.44 784.66 1895.03 785.38 1895.44C786.1 1895.85 786.92 1896.06 787.84 1896.06C789.08 1896.06 790.087 1895.71 790.86 1895.02C791.633 1894.33 792.107 1893.39 792.28 1892.2H787.06V1890.38H794.72V1892.16C794.573 1893.24 794.187 1894.23 793.56 1895.14C792.947 1896.05 792.14 1896.77 791.14 1897.32C790.153 1897.85 789.053 1898.12 787.84 1898.12C786.533 1898.12 785.34 1897.82 784.26 1897.22C783.18 1896.61 782.32 1895.76 781.68 1894.68C781.053 1893.6 780.74 1892.38 780.74 1891.02C780.74 1889.66 781.053 1888.44 781.68 1887.36C782.32 1886.28 783.18 1885.44 784.26 1884.84C785.353 1884.23 786.547 1883.92 787.84 1883.92C789.32 1883.92 790.633 1884.29 791.78 1885.02C792.94 1885.74 793.78 1886.77 794.3 1888.1H791.56ZM807.069 1892.22C807.069 1892.63 807.042 1893.01 806.989 1893.34H798.569C798.635 1894.22 798.962 1894.93 799.549 1895.46C800.135 1895.99 800.855 1896.26 801.709 1896.26C802.935 1896.26 803.802 1895.75 804.309 1894.72H806.769C806.435 1895.73 805.829 1896.57 804.949 1897.22C804.082 1897.86 803.002 1898.18 801.709 1898.18C800.655 1898.18 799.709 1897.95 798.869 1897.48C798.042 1897 797.389 1896.33 796.909 1895.48C796.442 1894.61 796.209 1893.61 796.209 1892.48C796.209 1891.35 796.435 1890.35 796.889 1889.5C797.355 1888.63 798.002 1887.97 798.829 1887.5C799.669 1887.03 800.629 1886.8 801.709 1886.8C802.749 1886.8 803.675 1887.03 804.489 1887.48C805.302 1887.93 805.935 1888.57 806.389 1889.4C806.842 1890.21 807.069 1891.15 807.069 1892.22ZM804.689 1891.5C804.675 1890.66 804.375 1889.99 803.789 1889.48C803.202 1888.97 802.475 1888.72 801.609 1888.72C800.822 1888.72 800.149 1888.97 799.589 1889.48C799.029 1889.97 798.695 1890.65 798.589 1891.5H804.689ZM811.973 1888.84V1894.94C811.973 1895.35 812.066 1895.65 812.253 1895.84C812.453 1896.01 812.786 1896.1 813.253 1896.1H814.653V1898H812.853C811.826 1898 811.039 1897.76 810.493 1897.28C809.946 1896.8 809.673 1896.02 809.673 1894.94V1888.84H808.373V1886.98H809.673V1884.24H811.973V1886.98H814.653V1888.84H811.973ZM826.529 1898.14C825.596 1898.14 824.756 1897.98 824.009 1897.66C823.263 1897.33 822.676 1896.86 822.249 1896.26C821.823 1895.66 821.609 1894.96 821.609 1894.16H824.049C824.103 1894.76 824.336 1895.25 824.749 1895.64C825.176 1896.03 825.769 1896.22 826.529 1896.22C827.316 1896.22 827.929 1896.03 828.369 1895.66C828.809 1895.27 829.029 1894.78 829.029 1894.18C829.029 1893.71 828.889 1893.33 828.609 1893.04C828.343 1892.75 828.003 1892.52 827.589 1892.36C827.189 1892.2 826.629 1892.03 825.909 1891.84C825.003 1891.6 824.263 1891.36 823.689 1891.12C823.129 1890.87 822.649 1890.48 822.249 1889.96C821.849 1889.44 821.649 1888.75 821.649 1887.88C821.649 1887.08 821.849 1886.38 822.249 1885.78C822.649 1885.18 823.209 1884.72 823.929 1884.4C824.649 1884.08 825.483 1883.92 826.429 1883.92C827.776 1883.92 828.876 1884.26 829.729 1884.94C830.596 1885.61 831.076 1886.53 831.169 1887.7H828.649C828.609 1887.19 828.369 1886.76 827.929 1886.4C827.489 1886.04 826.909 1885.86 826.189 1885.86C825.536 1885.86 825.003 1886.03 824.589 1886.36C824.176 1886.69 823.969 1887.17 823.969 1887.8C823.969 1888.23 824.096 1888.58 824.349 1888.86C824.616 1889.13 824.949 1889.34 825.349 1889.5C825.749 1889.66 826.296 1889.83 826.989 1890.02C827.909 1890.27 828.656 1890.53 829.229 1890.78C829.816 1891.03 830.309 1891.43 830.709 1891.96C831.123 1892.48 831.329 1893.18 831.329 1894.06C831.329 1894.77 831.136 1895.43 830.749 1896.06C830.376 1896.69 829.823 1897.19 829.089 1897.58C828.369 1897.95 827.516 1898.14 826.529 1898.14ZM836.68 1888.84V1894.94C836.68 1895.35 836.773 1895.65 836.96 1895.84C837.16 1896.01 837.493 1896.1 837.96 1896.1H839.36V1898H837.56C836.533 1898 835.746 1897.76 835.2 1897.28C834.653 1896.8 834.38 1896.02 834.38 1894.94V1888.84H833.08V1886.98H834.38V1884.24H836.68V1886.98H839.36V1888.84H836.68ZM840.701 1892.44C840.701 1891.33 840.928 1890.35 841.381 1889.5C841.848 1888.65 842.474 1887.99 843.261 1887.52C844.061 1887.04 844.941 1886.8 845.901 1886.8C846.768 1886.8 847.521 1886.97 848.161 1887.32C848.814 1887.65 849.334 1888.07 849.721 1888.58V1886.98H852.021V1898H849.721V1896.36C849.334 1896.88 848.808 1897.31 848.141 1897.66C847.474 1898.01 846.714 1898.18 845.861 1898.18C844.914 1898.18 844.048 1897.94 843.261 1897.46C842.474 1896.97 841.848 1896.29 841.381 1895.42C840.928 1894.54 840.701 1893.55 840.701 1892.44ZM849.721 1892.48C849.721 1891.72 849.561 1891.06 849.241 1890.5C848.934 1889.94 848.528 1889.51 848.021 1889.22C847.514 1888.93 846.968 1888.78 846.381 1888.78C845.794 1888.78 845.248 1888.93 844.741 1889.22C844.234 1889.5 843.821 1889.92 843.501 1890.48C843.194 1891.03 843.041 1891.68 843.041 1892.44C843.041 1893.2 843.194 1893.87 843.501 1894.44C843.821 1895.01 844.234 1895.45 844.741 1895.76C845.261 1896.05 845.808 1896.2 846.381 1896.2C846.968 1896.2 847.514 1896.05 848.021 1895.76C848.528 1895.47 848.934 1895.04 849.241 1894.48C849.561 1893.91 849.721 1893.24 849.721 1892.48ZM857.296 1888.58C857.629 1888.02 858.069 1887.59 858.616 1887.28C859.176 1886.96 859.836 1886.8 860.596 1886.8V1889.16H860.016C859.122 1889.16 858.442 1889.39 857.976 1889.84C857.522 1890.29 857.296 1891.08 857.296 1892.2V1898H855.016V1886.98H857.296V1888.58ZM865.351 1888.84V1894.94C865.351 1895.35 865.445 1895.65 865.631 1895.84C865.831 1896.01 866.165 1896.1 866.631 1896.1H868.031V1898H866.231C865.205 1898 864.418 1897.76 863.871 1897.28C863.325 1896.8 863.051 1896.02 863.051 1894.94V1888.84H861.751V1886.98H863.051V1884.24H865.351V1886.98H868.031V1888.84H865.351ZM880.233 1892.22C880.233 1892.63 880.206 1893.01 880.153 1893.34H871.733C871.799 1894.22 872.126 1894.93 872.713 1895.46C873.299 1895.99 874.019 1896.26 874.873 1896.26C876.099 1896.26 876.966 1895.75 877.473 1894.72H879.933C879.599 1895.73 878.993 1896.57 878.113 1897.22C877.246 1897.86 876.166 1898.18 874.873 1898.18C873.819 1898.18 872.873 1897.95 872.033 1897.48C871.206 1897 870.553 1896.33 870.073 1895.48C869.606 1894.61 869.373 1893.61 869.373 1892.48C869.373 1891.35 869.599 1890.35 870.053 1889.5C870.519 1888.63 871.166 1887.97 871.993 1887.5C872.833 1887.03 873.793 1886.8 874.873 1886.8C875.913 1886.8 876.839 1887.03 877.653 1887.48C878.466 1887.93 879.099 1888.57 879.553 1889.4C880.006 1890.21 880.233 1891.15 880.233 1892.22ZM877.853 1891.5C877.839 1890.66 877.539 1889.99 876.953 1889.48C876.366 1888.97 875.639 1888.72 874.773 1888.72C873.986 1888.72 873.313 1888.97 872.753 1889.48C872.193 1889.97 871.859 1890.65 871.753 1891.5H877.853ZM881.717 1892.44C881.717 1891.33 881.943 1890.35 882.397 1889.5C882.863 1888.65 883.49 1887.99 884.277 1887.52C885.077 1887.04 885.963 1886.8 886.937 1886.8C887.657 1886.8 888.363 1886.96 889.057 1887.28C889.763 1887.59 890.323 1888 890.737 1888.52V1883.2H893.037V1898H890.737V1896.34C890.363 1896.87 889.843 1897.31 889.177 1897.66C888.523 1898.01 887.77 1898.18 886.917 1898.18C885.957 1898.18 885.077 1897.94 884.277 1897.46C883.49 1896.97 882.863 1896.29 882.397 1895.42C881.943 1894.54 881.717 1893.55 881.717 1892.44ZM890.737 1892.48C890.737 1891.72 890.577 1891.06 890.257 1890.5C889.95 1889.94 889.543 1889.51 889.037 1889.22C888.53 1888.93 887.983 1888.78 887.397 1888.78C886.81 1888.78 886.263 1888.93 885.757 1889.22C885.25 1889.5 884.837 1889.92 884.517 1890.48C884.21 1891.03 884.057 1891.68 884.057 1892.44C884.057 1893.2 884.21 1893.87 884.517 1894.44C884.837 1895.01 885.25 1895.45 885.757 1895.76C886.277 1896.05 886.823 1896.2 887.397 1896.2C887.983 1896.2 888.53 1896.05 889.037 1895.76C889.543 1895.47 889.95 1895.04 890.257 1894.48C890.577 1893.91 890.737 1893.24 890.737 1892.48Z" fill="white"/>
<path d="M609 766.987C609 767.252 609.105 767.506 609.293 767.694C609.48 767.881 609.735 767.987 610 767.987H629.586L625.294 772.279C625.112 772.467 625.011 772.72 625.013 772.982C625.016 773.244 625.121 773.495 625.306 773.681C625.492 773.866 625.742 773.971 626.005 773.973C626.267 773.976 626.519 773.875 626.708 773.693L632.708 767.693C632.801 767.601 632.874 767.491 632.924 767.371C632.974 767.25 633 767.121 633 766.991V766.987C633 766.857 632.974 766.727 632.922 766.605C632.872 766.483 632.799 766.373 632.706 766.281L626.706 760.281C626.517 760.099 626.265 759.998 626.003 760C625.74 760.002 625.49 760.107 625.304 760.293C625.119 760.478 625.014 760.729 625.011 760.991C625.009 761.254 625.11 761.506 625.292 761.695L629.586 765.987H610C609.735 765.987 609.48 766.092 609.293 766.28C609.105 766.467 609 766.721 609 766.987V766.987Z" fill="white"/>
<g filter="url(#filter6_f_362_1259)">
<rect x="1265.46" y="1906.64" width="156.325" height="167.283" transform="rotate(43.0005 1265.46 1906.64)" fill="#55EBBF"/>
<rect x="1265.49" y="1907.35" width="155.325" height="166.283" transform="rotate(43.0005 1265.49 1907.35)" stroke="#35C5D8"/>
</g>
<g filter="url(#filter7_f_362_1259)">
<rect x="1104.09" y="4170" width="156.325" height="167.283" transform="rotate(43.0005 1104.09 4170)" fill="#55EBBF"/>
<rect x="1104.11" y="4170.71" width="155.325" height="166.283" transform="rotate(43.0005 1104.11 4170.71)" stroke="#35C5D8"/>
</g>
<rect x="-0.102388" y="0.706034" width="394.648" height="421.206" transform="matrix(0.591095 0.806602 -0.795872 0.605465 1238.54 5774.36)" stroke="#2099F2"/>
<rect x="-0.102388" y="0.706034" width="264.812" height="282.655" transform="matrix(0.591095 0.806602 -0.795872 0.605465 1221.78 5868.67)" stroke="#2099F2"/>
<g filter="url(#filter8_f_362_1259)">
<rect x="1144.09" y="5987" width="156.325" height="167.283" transform="rotate(43.0005 1144.09 5987)" fill="#55EBBF"/>
<rect x="1144.11" y="5987.71" width="155.325" height="166.283" transform="rotate(43.0005 1144.11 5987.71)" stroke="#35C5D8"/>
</g>
<g filter="url(#filter9_f_362_1259)">
<rect x="81.0876" y="921" width="156.325" height="167.283" transform="rotate(43.0005 81.0876 921)" fill="#55EBBF"/>
<rect x="81.1123" y="921.707" width="155.325" height="166.283" transform="rotate(43.0005 81.1123 921.707)" stroke="#35C5D8"/>
</g>
<path d="M-1 5251.59L1440 4945V5876L-1 6122V5251.59Z" fill="#144068"/>
<rect x="0.0247465" y="0.708837" width="326.899" height="348.621" transform="matrix(0.729256 0.684241 -0.679763 0.733432 206.148 5257.17)" stroke="#2099F2"/>
<g filter="url(#filter10_f_362_1259)">
<rect width="141.71" height="151.098" transform="matrix(0.729256 0.684241 -0.679763 0.733432 206.075 5393.5)" fill="#101B4C"/>
<rect x="0.0247465" y="0.708837" width="140.71" height="150.098" transform="matrix(0.729256 0.684241 -0.679763 0.733432 206.563 5393.67)" stroke="#2099F2"/>
</g>
<rect x="0.0247465" y="0.708837" width="219.296" height="233.89" transform="matrix(0.729256 0.684241 -0.679763 0.733432 206.388 5336.06)" stroke="#2099F2"/>
<g filter="url(#filter11_f_362_1259)">
<rect width="307.765" height="329.478" transform="matrix(0.729256 0.684241 -0.679763 0.733432 208.111 5269.16)" fill="#2099F2"/>
<rect x="0.0247465" y="0.708837" width="306.765" height="328.478" transform="matrix(0.729256 0.684241 -0.679763 0.733432 208.599 5269.34)" stroke="#2099F2"/>
</g>
</g>
<defs>
<filter id="filter0_f_362_1259" x="-113.424" y="265.715" width="295.323" height="295.784" filterUnits="userSpaceOnUse" color-interpolation-filters="sRGB">
<feFlood flood-opacity="0" result="BackgroundImageFix"/>
<feBlend mode="normal" in="SourceGraphic" in2="BackgroundImageFix" result="shape"/>
<feGaussianBlur stdDeviation="22" result="effect1_foregroundBlur_362_1259"/>
</filter>
<filter id="filter1_f_362_1259" x="-463.379" y="-88.6208" width="999.167" height="1000.24" filterUnits="userSpaceOnUse" color-interpolation-filters="sRGB">
<feFlood flood-opacity="0" result="BackgroundImageFix"/>
<feBlend mode="normal" in="SourceGraphic" in2="BackgroundImageFix" result="shape"/>
<feGaussianBlur stdDeviation="137" result="effect1_foregroundBlur_362_1259"/>
</filter>
<filter id="filter2_f_362_1259" x="824.197" y="-36.4995" width="295.323" height="295.784" filterUnits="userSpaceOnUse" color-interpolation-filters="sRGB">
<feFlood flood-opacity="0" result="BackgroundImageFix"/>
<feBlend mode="normal" in="SourceGraphic" in2="BackgroundImageFix" result="shape"/>
<feGaussianBlur stdDeviation="22" result="effect1_foregroundBlur_362_1259"/>
</filter>
<filter id="filter3_f_362_1259" x="474.243" y="-390.835" width="999.167" height="1000.24" filterUnits="userSpaceOnUse" color-interpolation-filters="sRGB">
<feFlood flood-opacity="0" result="BackgroundImageFix"/>
<feBlend mode="normal" in="SourceGraphic" in2="BackgroundImageFix" result="shape"/>
<feGaussianBlur stdDeviation="137" result="effect1_foregroundBlur_362_1259"/>
</filter>
<filter id="filter4_f_362_1259" x="1003.2" y="733.501" width="295.323" height="295.784" filterUnits="userSpaceOnUse" color-interpolation-filters="sRGB">
<feFlood flood-opacity="0" result="BackgroundImageFix"/>
<feBlend mode="normal" in="SourceGraphic" in2="BackgroundImageFix" result="shape"/>
<feGaussianBlur stdDeviation="22" result="effect1_foregroundBlur_362_1259"/>
</filter>
<filter id="filter5_f_362_1259" x="653.243" y="379.165" width="999.167" height="1000.24" filterUnits="userSpaceOnUse" color-interpolation-filters="sRGB">
<feFlood flood-opacity="0" result="BackgroundImageFix"/>
<feBlend mode="normal" in="SourceGraphic" in2="BackgroundImageFix" result="shape"/>
<feGaussianBlur stdDeviation="137" result="effect1_foregroundBlur_362_1259"/>
</filter>
<filter id="filter6_f_362_1259" x="820.376" y="1575.64" width="890.416" height="890.957" filterUnits="userSpaceOnUse" color-interpolation-filters="sRGB">
<feFlood flood-opacity="0" result="BackgroundImageFix"/>
<feBlend mode="normal" in="SourceGraphic" in2="BackgroundImageFix" result="shape"/>
<feGaussianBlur stdDeviation="165.5" result="effect1_foregroundBlur_362_1259"/>
</filter>
<filter id="filter7_f_362_1259" x="659" y="3839" width="890.416" height="890.957" filterUnits="userSpaceOnUse" color-interpolation-filters="sRGB">
<feFlood flood-opacity="0" result="BackgroundImageFix"/>
<feBlend mode="normal" in="SourceGraphic" in2="BackgroundImageFix" result="shape"/>
<feGaussianBlur stdDeviation="165.5" result="effect1_foregroundBlur_362_1259"/>
</filter>
<filter id="filter8_f_362_1259" x="699" y="5656" width="890.416" height="890.957" filterUnits="userSpaceOnUse" color-interpolation-filters="sRGB">
<feFlood flood-opacity="0" result="BackgroundImageFix"/>
<feBlend mode="normal" in="SourceGraphic" in2="BackgroundImageFix" result="shape"/>
<feGaussianBlur stdDeviation="165.5" result="effect1_foregroundBlur_362_1259"/>
</filter>
<filter id="filter9_f_362_1259" x="-364" y="590" width="890.416" height="890.957" filterUnits="userSpaceOnUse" color-interpolation-filters="sRGB">
<feFlood flood-opacity="0" result="BackgroundImageFix"/>
<feBlend mode="normal" in="SourceGraphic" in2="BackgroundImageFix" result="shape"/>
<feGaussianBlur stdDeviation="165.5" result="effect1_foregroundBlur_362_1259"/>
</filter>
<filter id="filter10_f_362_1259" x="59.3638" y="5349.5" width="294.054" height="295.784" filterUnits="userSpaceOnUse" color-interpolation-filters="sRGB">
<feFlood flood-opacity="0" result="BackgroundImageFix"/>
<feBlend mode="normal" in="SourceGraphic" in2="BackgroundImageFix" result="shape"/>
<feGaussianBlur stdDeviation="22" result="effect1_foregroundBlur_362_1259"/>
</filter>
<filter id="filter11_f_362_1259" x="-289.856" y="4995.16" width="996.406" height="1000.24" filterUnits="userSpaceOnUse" color-interpolation-filters="sRGB">
<feFlood flood-opacity="0" result="BackgroundImageFix"/>
<feBlend mode="normal" in="SourceGraphic" in2="BackgroundImageFix" result="shape"/>
<feGaussianBlur stdDeviation="137" result="effect1_foregroundBlur_362_1259"/>
</filter>
<clipPath id="clip0_362_1259">
<rect width="1440" height="6814" fill="white"/>
</clipPath>
</defs>
</svg>
