<svg width="240" height="71" viewBox="0 0 240 71" fill="none" xmlns="http://www.w3.org/2000/svg">
<g clip-path="url(#clip0_351_178)">
<path d="M231.111 70.9874H8.88889C3.91111 70.9874 0 67.0837 0 62.1155V8.8841C0 3.91584 3.91111 0.012207 8.88889 0.012207H231.111C236.089 0.012207 240 3.91584 240 8.8841V62.1155C240 67.0837 236.089 70.9874 231.111 70.9874Z" fill="black"/>
<path d="M84.2666 18.1113C84.2666 19.5308 83.9111 20.7729 83.0222 21.6601C81.9555 22.7247 80.7111 23.257 79.1111 23.257C77.5111 23.257 76.2666 22.7247 75.2 21.6601C74.1333 20.5954 73.6 19.3534 73.6 17.7564C73.6 16.1595 74.1333 14.9174 75.2 13.8528C76.2666 12.7882 77.5111 12.2559 79.1111 12.2559C79.8222 12.2559 80.5333 12.4333 81.2444 12.7882C81.9555 13.143 82.4889 13.4979 82.8444 14.0302L81.9555 14.9174C81.2444 14.0302 80.3555 13.6754 79.1111 13.6754C78.0444 13.6754 76.9778 14.0302 76.2666 14.9174C75.3778 15.6272 75.0222 16.6918 75.0222 17.9339C75.0222 19.1759 75.3778 20.2406 76.2666 20.9503C77.1555 21.6601 78.0444 22.1924 79.1111 22.1924C80.3555 22.1924 81.2444 21.8375 82.1333 20.9503C82.6666 20.418 83.0222 19.7083 83.0222 18.8211H79.1111V17.4016H84.2666V18.1113ZM92.4444 13.6754H87.6444V17.0467H92.0889V18.2887H87.6444V21.6601H92.4444V23.0796H86.2222V12.4333H92.4444V13.6754ZM98.3111 23.0796H96.8889V13.6754H93.8666V12.4333H101.333V13.6754H98.3111V23.0796ZM106.489 23.0796V12.4333H107.911V23.0796H106.489ZM113.956 23.0796H112.533V13.6754H109.511V12.4333H116.8V13.6754H113.778V23.0796H113.956ZM130.844 21.6601C129.778 22.7247 128.533 23.257 126.933 23.257C125.333 23.257 124.089 22.7247 123.022 21.6601C121.956 20.5954 121.422 19.3534 121.422 17.7564C121.422 16.1595 121.956 14.9174 123.022 13.8528C124.089 12.7882 125.333 12.2559 126.933 12.2559C128.533 12.2559 129.778 12.7882 130.844 13.8528C131.911 14.9174 132.444 16.1595 132.444 17.7564C132.444 19.3534 131.911 20.5954 130.844 21.6601ZM124.089 20.7729C124.8 21.4826 125.867 22.0149 126.933 22.0149C128 22.0149 129.067 21.6601 129.778 20.7729C130.489 20.0631 131.022 18.9985 131.022 17.7564C131.022 16.5144 130.667 15.4497 129.778 14.74C129.067 14.0302 128 13.4979 126.933 13.4979C125.867 13.4979 124.8 13.8528 124.089 14.74C123.378 15.4497 122.844 16.5144 122.844 17.7564C122.844 18.9985 123.2 20.0631 124.089 20.7729ZM134.4 23.0796V12.4333H136L141.156 20.7729V12.4333H142.578V23.0796H141.156L135.644 14.3851V23.0796H134.4Z" fill="white" stroke="white" stroke-miterlimit="10"/>
<path d="M121.067 38.6941C116.8 38.6941 113.422 41.888 113.422 46.3239C113.422 50.5824 116.8 53.9537 121.067 53.9537C125.333 53.9537 128.711 50.7598 128.711 46.3239C128.711 41.7105 125.333 38.6941 121.067 38.6941ZM121.067 50.7598C118.756 50.7598 116.8 48.808 116.8 46.1465C116.8 43.4849 118.756 41.5331 121.067 41.5331C123.378 41.5331 125.333 43.3075 125.333 46.1465C125.333 48.808 123.378 50.7598 121.067 50.7598ZM104.533 38.6941C100.267 38.6941 96.8889 41.888 96.8889 46.3239C96.8889 50.5824 100.267 53.9537 104.533 53.9537C108.8 53.9537 112.178 50.7598 112.178 46.3239C112.178 41.7105 108.8 38.6941 104.533 38.6941ZM104.533 50.7598C102.222 50.7598 100.267 48.808 100.267 46.1465C100.267 43.4849 102.222 41.5331 104.533 41.5331C106.844 41.5331 108.8 43.3075 108.8 46.1465C108.8 48.808 106.844 50.7598 104.533 50.7598ZM84.8 41.0008V44.1946H92.4444C92.2667 45.969 91.5555 47.3885 90.6667 48.2757C89.6 49.3403 87.8222 50.5824 84.8 50.5824C80 50.5824 76.4444 46.8562 76.4444 42.0654C76.4444 37.2746 80.1778 33.5484 84.8 33.5484C87.2889 33.5484 89.2444 34.613 90.6667 35.8551L92.9778 33.5484C91.0222 31.774 88.5333 30.3545 84.9778 30.3545C78.5778 30.3545 73.0667 35.6776 73.0667 42.0654C73.0667 48.4532 78.5778 53.7763 84.9778 53.7763C88.5333 53.7763 91.0222 52.7117 93.1555 50.405C95.2889 48.2757 96 45.2593 96 42.9526C96 42.2428 96 41.5331 95.8222 41.0008H84.8ZM165.511 43.4849C164.8 41.7105 163.022 38.6941 159.111 38.6941C155.2 38.6941 152 41.7105 152 46.3239C152 50.5824 155.2 53.9537 159.467 53.9537C162.844 53.9537 164.978 51.8245 165.689 50.5824L163.2 48.808C162.311 50.0501 161.244 50.9373 159.467 50.9373C157.689 50.9373 156.622 50.2275 155.733 48.6306L165.867 44.3721L165.511 43.4849ZM155.2 45.969C155.2 43.13 157.511 41.5331 159.111 41.5331C160.356 41.5331 161.6 42.2428 161.956 43.13L155.2 45.969ZM146.844 53.244H150.222V31.0642H146.844V53.244ZM141.511 40.291C140.622 39.4038 139.2 38.5166 137.422 38.5166C133.689 38.5166 130.133 41.888 130.133 46.1465C130.133 50.405 133.511 53.5989 137.422 53.5989C139.2 53.5989 140.622 52.7117 141.333 51.8245H141.511V52.8891C141.511 55.7281 139.911 57.325 137.422 57.325C135.467 57.325 134.044 55.9055 133.689 54.6635L130.844 55.9055C131.733 57.8574 133.867 60.3415 137.6 60.3415C141.511 60.3415 144.711 58.0348 144.711 52.5342V39.0489H141.511V40.291ZM137.6 50.7598C135.289 50.7598 133.333 48.808 133.333 46.1465C133.333 43.4849 135.289 41.5331 137.6 41.5331C139.911 41.5331 141.689 43.4849 141.689 46.1465C141.689 48.808 139.911 50.7598 137.6 50.7598ZM180.978 31.0642H172.978V53.244H176.356V44.9044H180.978C184.711 44.9044 188.267 42.2428 188.267 37.9843C188.267 33.7258 184.711 31.0642 180.978 31.0642ZM181.156 41.7105H176.356V34.0807H181.156C183.644 34.0807 185.067 36.2099 185.067 37.8069C184.889 39.7587 183.467 41.7105 181.156 41.7105ZM201.6 38.5166C199.111 38.5166 196.622 39.5813 195.733 41.888L198.756 43.13C199.467 41.888 200.533 41.5331 201.778 41.5331C203.556 41.5331 205.156 42.5977 205.333 44.3721V44.5495C204.8 44.1946 203.378 43.6623 201.956 43.6623C198.756 43.6623 195.556 45.4367 195.556 48.6306C195.556 51.647 198.222 53.5989 201.067 53.5989C203.378 53.5989 204.444 52.5342 205.333 51.4696H205.511V53.244H208.711V44.727C208.356 40.8233 205.333 38.5166 201.6 38.5166ZM201.244 50.7598C200.178 50.7598 198.578 50.2275 198.578 48.808C198.578 47.0337 200.533 46.5013 202.133 46.5013C203.556 46.5013 204.267 46.8562 205.156 47.2111C204.8 49.3403 203.022 50.7598 201.244 50.7598ZM219.911 39.0489L216.178 48.6306H216L212.089 39.0489H208.533L214.4 52.5342L211.022 59.9866H214.4L223.467 39.0489H219.911ZM190.044 53.244H193.422V31.0642H190.044V53.244Z" fill="white"/>
<path d="M18.4889 13.3203C17.9555 13.8526 17.7778 14.7398 17.7778 15.8044V55.0182C17.7778 56.0828 18.1333 56.97 18.6667 57.5024L18.8444 57.6798L40.8889 35.6775V35.3226L18.4889 13.3203Z" fill="url(#paint0_linear_351_178)"/>
<path d="M48 43.1301L40.7111 35.8551V35.3228L48 28.0479L48.1778 28.2253L56.8889 33.1936C59.3778 34.6131 59.3778 36.9197 56.8889 38.3393L48 43.1301Z" fill="url(#paint1_linear_351_178)"/>
<path d="M48.1778 42.9524L40.7111 35.5L18.4889 57.6797C19.3778 58.5669 20.6222 58.5669 22.2222 57.8572L48.1778 42.9524Z" fill="url(#paint2_linear_351_178)"/>
<path d="M48.1778 28.0474L22.2222 13.3201C20.6222 12.4329 19.3778 12.6103 18.4889 13.4975L40.7111 35.4998L48.1778 28.0474Z" fill="url(#paint3_linear_351_178)"/>
<path opacity="0.2" d="M48 42.7749L22.2222 57.3248C20.8 58.212 19.5556 58.0346 18.6667 57.3248L18.4889 57.5023L18.6667 57.6797C19.5556 58.3894 20.8 58.5669 22.2222 57.6797L48 42.7749Z" fill="black"/>
<path opacity="0.12" d="M18.4889 57.3249C17.9555 56.7925 17.7778 55.9054 17.7778 54.8407V55.0182C17.7778 56.0828 18.1333 56.97 18.6667 57.5023V57.3249H18.4889ZM56.8889 37.8067L48 42.775L48.1778 42.9524L56.8889 37.9841C58.1333 37.2744 58.6667 36.3872 58.6667 35.5C58.6667 36.3872 57.9555 37.0969 56.8889 37.8067Z" fill="black"/>
<path opacity="0.25" d="M22.2222 13.4978L56.8889 33.1934C57.9555 33.9032 58.6667 34.6129 58.6667 35.5001C58.6667 34.6129 58.1333 33.7257 56.8889 33.016L22.2222 13.3204C19.7333 11.9009 17.7778 12.9655 17.7778 15.8045V15.9819C17.7778 13.3204 19.7333 12.0783 22.2222 13.4978Z" fill="white"/>
</g>
<defs>
<linearGradient id="paint0_linear_351_178" x1="38.7555" y1="15.4673" x2="8.9762" y2="45.3019" gradientUnits="userSpaceOnUse">
<stop stop-color="#00A0FF"/>
<stop offset="0.007" stop-color="#00A1FF"/>
<stop offset="0.26" stop-color="#00BEFF"/>
<stop offset="0.512" stop-color="#00D2FF"/>
<stop offset="0.76" stop-color="#00DFFF"/>
<stop offset="1" stop-color="#00E3FF"/>
</linearGradient>
<linearGradient id="paint1_linear_351_178" x1="60.1493" y1="35.502" x2="17.1325" y2="35.502" gradientUnits="userSpaceOnUse">
<stop stop-color="#FFE000"/>
<stop offset="0.409" stop-color="#FFBD00"/>
<stop offset="0.775" stop-color="#FFA500"/>
<stop offset="1" stop-color="#FF9C00"/>
</linearGradient>
<linearGradient id="paint2_linear_351_178" x1="44.1369" y1="39.574" x2="3.75565" y2="80.0326" gradientUnits="userSpaceOnUse">
<stop stop-color="#FF3A44"/>
<stop offset="1" stop-color="#C31162"/>
</linearGradient>
<linearGradient id="paint3_linear_351_178" x1="12.9724" y1="0.324548" x2="31.0054" y2="18.3921" gradientUnits="userSpaceOnUse">
<stop stop-color="#32A071"/>
<stop offset="0.069" stop-color="#2DA771"/>
<stop offset="0.476" stop-color="#15CF74"/>
<stop offset="0.801" stop-color="#06E775"/>
<stop offset="1" stop-color="#00F076"/>
</linearGradient>
<clipPath id="clip0_351_178">
<rect width="240" height="71" fill="white"/>
</clipPath>
</defs>
</svg>
