<svg width="82" height="82" viewBox="0 0 82 82" fill="none" xmlns="http://www.w3.org/2000/svg">
<path fill-rule="evenodd" clip-rule="evenodd" d="M41 0C30.1261 0 19.6976 4.31963 12.0086 12.0086C4.31963 19.6976 0 30.1261 0 41C0 51.8739 4.31963 62.3024 12.0086 69.9914C19.6976 77.6804 30.1261 82 41 82C51.8739 82 62.3024 77.6804 69.9914 69.9914C77.6804 62.3024 82 51.8739 82 41C82 30.1261 77.6804 19.6976 69.9914 12.0086C62.3024 4.31963 51.8739 0 41 0ZM24.2669 25.625V25.6284C24.4308 25.6213 24.5933 25.6617 24.735 25.7446L29.9795 28.7888C30.1751 28.9025 30.3177 29.0891 30.3763 29.3078C30.4349 29.5265 30.4047 29.7594 30.2922 29.9556L30.0564 30.369L31.5034 31.2113L33.0819 32.1252C34.497 31.3256 36.1291 30.9948 37.7439 31.1805C38.7487 31.2983 39.7214 31.6086 40.6088 32.0945L41.0103 32.3114L41.1367 32.238L41.3673 32.1013C41.3684 32.1013 41.3696 32.1013 41.3707 32.1013C42.2491 31.591 43.222 31.2643 44.2305 31.1412C45.8601 30.9488 47.5083 31.2892 48.9284 32.1115L49.622 31.7101L50.4966 31.2044L51.3696 30.697L51.947 30.3622L51.7078 29.9454C51.5954 29.7499 51.5648 29.5179 51.6227 29.3C51.6806 29.082 51.8224 28.8958 52.017 28.782L57.265 25.7412C57.3824 25.6736 57.5142 25.635 57.6494 25.6284C57.8071 25.62 57.964 25.6555 58.1027 25.7309C58.2414 25.8063 58.3565 25.9186 58.4353 26.0555L66.5122 40.11C66.6243 40.306 66.6541 40.5385 66.5952 40.7565C66.5363 40.9745 66.3935 41.1604 66.1979 41.2733L60.9533 44.3142C60.856 44.3704 60.7486 44.407 60.6371 44.4216C60.5256 44.4363 60.4124 44.4288 60.3038 44.3996C60.1953 44.3704 60.0935 44.32 60.0045 44.2514C59.9154 44.1828 59.8408 44.0973 59.7848 43.9998L57.8459 40.6259L57.2753 40.9573L56.4023 41.463L55.5242 41.9703L54.8495 42.3615C54.8495 43.706 54.501 45.03 53.8296 46.1916C53.7625 46.3173 53.665 46.4242 53.546 46.5025C53.517 46.5606 53.4982 46.6238 53.4657 46.6819C53.2026 47.138 52.7414 47.3533 52.3006 47.5771C52.8439 48.3851 53.0865 49.3674 52.5705 50.2626C52.058 51.156 51.0894 51.4379 50.1191 51.373C50.1481 51.8684 50.1943 52.3724 49.9312 52.8285C49.2513 54.0141 47.7667 54.3933 46.5521 53.8193C46.5179 54.1832 46.6085 54.5539 46.4154 54.8905C46.0661 55.4916 45.493 55.93 44.8215 56.1099C44.1499 56.2898 43.4344 56.1966 42.8313 55.8505L41 54.7914L39.1687 55.8505C38.5656 56.1966 37.8501 56.2898 37.1785 56.1099C36.507 55.93 35.9339 55.4916 35.5846 54.8905C35.3915 54.5556 35.4821 54.1832 35.4479 53.8193C34.235 54.3916 32.7488 54.0141 32.0671 52.8285C31.8075 52.3724 31.8519 51.8667 31.8809 51.373C30.9123 51.4379 29.942 51.156 29.4295 50.2626C29.2119 49.8779 29.0947 49.4447 29.0887 49.0028C29.0827 48.5609 29.1882 48.1246 29.3953 47.7343C27.9801 46.3134 27.1838 44.3908 27.1796 42.3855L25.5977 41.4664L24.1575 40.6293L22.2152 44.0067C22.1014 44.2021 21.915 44.3444 21.6966 44.4023C21.4782 44.4603 21.2458 44.4292 21.0501 44.3159L15.8021 41.275C15.6058 41.1616 15.4624 40.9749 15.4035 40.7557C15.3446 40.5366 15.3749 40.3031 15.4878 40.1065L23.5665 26.0521C23.638 25.9277 23.7397 25.8234 23.8621 25.7488C23.9845 25.6741 24.1237 25.6316 24.2669 25.625ZM24.6205 27.6511L17.3943 40.2227L21.1645 42.4094L28.3908 29.836L24.6205 27.6494V27.6511ZM57.3795 27.6511L53.6126 29.836L60.8355 42.4094L64.6058 40.2227L57.3795 27.6494V27.6511ZM29.2057 31.8433L25.0083 39.143L26.4553 39.9835L27.4034 40.5353C27.5725 39.8452 27.8031 39.1653 28.1738 38.5195L30.246 34.9132C30.6168 34.2692 31.0712 33.7071 31.5785 33.222L30.6492 32.6804L29.2057 31.8433ZM52.7978 31.8468L52.2272 32.1765L51.3508 32.6838L50.4761 33.1912L50.4198 33.2202C50.9288 33.7105 51.3833 34.2726 51.7523 34.9149L53.8262 38.5229C53.8353 38.5403 53.8439 38.5579 53.8518 38.5759C53.862 38.5912 53.8672 38.61 53.8757 38.6271C53.8804 38.6356 53.885 38.6441 53.8894 38.6527C54.2208 39.2558 54.4685 39.8793 54.6274 40.5183L54.6701 40.4909L55.5448 39.9835L56.4177 39.4762L56.9951 39.143L52.7978 31.8468ZM45.5852 32.7898V32.7932C44.4126 32.7114 43.2427 32.9853 42.2283 33.579L41.4698 34.0215C41.4687 34.0215 41.4675 34.0215 41.4664 34.0215L38.991 35.4565H38.9842C38.9769 35.4623 38.9695 35.468 38.962 35.4735L36.5959 36.8436L34.3204 38.1693C35.1302 38.8988 36.1466 39.2319 37.0059 38.733L37.076 38.6955C37.1223 38.656 37.1727 38.6217 37.2263 38.593L41.0427 36.3773L41.0871 36.3499C41.0984 36.3434 41.1098 36.3371 41.1213 36.3311C41.6199 36.0403 42.1921 35.9001 42.7687 35.9274C43.3452 35.9547 43.9016 36.1483 44.3705 36.4849H44.374C44.5243 36.5959 44.6678 36.7206 44.7976 36.8641C44.8967 36.9752 44.9804 37.1084 45.0641 37.2383C45.0829 37.2601 45.1006 37.2829 45.1171 37.3066C45.1239 37.3185 45.1342 37.3237 45.141 37.3408C45.171 37.3916 45.1956 37.4454 45.2145 37.5013C45.4622 37.9882 45.5578 38.5161 45.5151 39.0337L52.5039 43.0876C52.7021 43.2003 52.8695 43.3438 53.025 43.4976C53.3058 42.0849 53.0642 40.6182 52.345 39.3703L50.2728 35.764C49.8776 35.073 49.3492 34.4674 48.7183 33.9822C47.8132 33.2864 46.7238 32.8717 45.5852 32.7898ZM37.1101 32.8239C36.0278 32.7631 34.9501 33.0067 33.999 33.5269C33.0479 34.0471 32.2615 34.8232 31.7289 35.7674L29.655 39.372C28.9692 40.5456 28.7086 41.9196 28.9171 43.2627C29.1256 44.6059 29.7903 45.8363 30.7995 46.7468C31.0124 46.8015 31.1959 46.9361 31.312 47.1227C31.4709 47.2405 31.6161 47.3721 31.7904 47.4746L34.5066 49.0497L35.0277 49.3503C35.0311 49.3503 35.0345 49.3503 35.0379 49.3503H35.0413L43.6889 54.3609C43.7916 54.4245 43.9062 54.4664 44.0256 54.484C44.1451 54.5017 44.2669 54.4947 44.3836 54.4635C44.5003 54.4323 44.6093 54.3775 44.704 54.3026C44.7987 54.2276 44.8771 54.1341 44.9343 54.0278C44.9974 53.9236 45.0388 53.8078 45.0562 53.6872C45.0735 53.5667 45.0663 53.4439 45.035 53.3262C45.0037 53.2085 44.9491 53.0983 44.8742 53.0022C44.7994 52.9061 44.7059 52.8261 44.5995 52.767H44.596L37.1648 48.4552L35.4172 47.4404C35.3201 47.3841 35.2352 47.3092 35.1671 47.2201C35.099 47.1309 35.0491 47.0292 35.0203 46.9208C34.9915 46.8124 34.9844 46.6993 34.9993 46.5882C35.0141 46.477 35.0508 46.3698 35.1071 46.2728C35.1634 46.1757 35.2383 46.0908 35.3274 46.0227C35.4166 45.9546 35.5183 45.9047 35.6267 45.8759C35.7351 45.8471 35.8482 45.84 35.9594 45.8549C36.0706 45.8698 36.1777 45.9064 36.2747 45.9627L43.8358 50.348L45.4536 51.2876L47.2064 52.3023C47.6574 52.5637 48.1887 52.4219 48.45 51.9658C48.5126 51.8621 48.5536 51.7469 48.5707 51.6271C48.5878 51.5072 48.5806 51.3852 48.5495 51.2682C48.5184 51.1511 48.4641 51.0416 48.3898 50.946C48.3155 50.8504 48.2227 50.7708 48.1169 50.7119H48.1135L39.8093 45.8944L38.9346 45.3853C38.7487 45.2671 38.6156 45.0816 38.5632 44.8677C38.5108 44.6537 38.5431 44.4277 38.6534 44.237C38.7636 44.0462 38.9433 43.9055 39.1549 43.8441C39.3665 43.7827 39.5936 43.8055 39.7888 43.9076L40.6635 44.415L48.9711 49.2325L49.8458 49.7398C50.2968 50.0012 50.828 49.8594 51.0894 49.4033C51.1525 49.2995 51.194 49.184 51.2114 49.0638C51.2288 48.9436 51.2217 48.8211 51.1906 48.7037C51.1595 48.5863 51.105 48.4763 51.0304 48.3805C50.9557 48.2847 50.8625 48.2049 50.7563 48.146L49.8885 47.642H49.8833L42.0831 43.1166L41.5757 42.8228L40.701 42.3154C40.5051 42.2017 40.3623 42.0148 40.3042 41.7958C40.246 41.5768 40.2773 41.3437 40.391 41.1478C40.5047 40.9518 40.6916 40.8091 40.9106 40.7509C41.1296 40.6928 41.3627 40.724 41.5586 40.8377L42.4333 41.3451L50.7409 46.1626C50.8439 46.2256 50.9587 46.2669 51.0782 46.284C51.1977 46.3011 51.3195 46.2937 51.436 46.2622C51.5526 46.2307 51.6615 46.1758 51.7561 46.1008C51.8507 46.0258 51.929 45.9323 51.9863 45.826C52.0494 45.7219 52.0908 45.6061 52.1082 45.4855C52.1255 45.365 52.1183 45.2422 52.087 45.1245C52.0557 45.0068 52.0011 44.8966 51.9262 44.8005C51.8514 44.7044 51.7579 44.6244 51.6515 44.5653L44.2185 40.2535C44.167 40.231 44.1177 40.2036 44.0716 40.1715C44.0704 40.1715 44.0693 40.1715 44.0682 40.1715L43.2909 39.7205C43.1287 39.6357 42.9981 39.5011 42.9182 39.3366C42.8383 39.172 42.8133 38.9861 42.847 38.8063C42.8807 38.6265 42.9712 38.4622 43.1052 38.3377C43.2393 38.2132 43.4097 38.135 43.5915 38.1146C43.5258 38.0127 43.4445 37.9216 43.3507 37.8447C43.2248 37.7521 43.0816 37.6858 42.9296 37.6497C42.7775 37.6136 42.6198 37.6085 42.4658 37.6346C42.2938 37.6631 42.1287 37.7233 41.9789 37.8123L41.9191 37.8464L41.7226 37.9728C41.7114 37.9805 41.7 37.9879 41.6885 37.995L37.8652 40.2142C35.8887 41.3605 33.3347 40.5046 32.1491 38.4426C32.0363 38.2468 32.0056 38.0142 32.0639 37.7958C32.1222 37.5775 32.2646 37.3911 32.46 37.2775L35.74 35.3659L38.0651 34.018C38.0877 34.0027 38.1111 33.9884 38.1351 33.9753L39.2233 33.3433C38.5543 33.0509 37.8401 32.8753 37.1118 32.8239H37.1101ZM20.3907 38.3999C20.559 38.4047 20.7234 38.4517 20.869 38.5366C21.1007 38.6707 21.2701 38.8916 21.3399 39.1511C21.4097 39.4105 21.3743 39.6871 21.2414 39.9203C21.1074 40.1531 20.8869 40.3229 20.6284 40.3925C20.3699 40.462 20.0946 40.4255 19.8628 40.291C19.6314 40.1567 19.4624 39.9356 19.3929 39.6762C19.3234 39.4168 19.3591 39.1403 19.4921 38.9073C19.5827 38.7494 19.714 38.619 19.8721 38.5297C20.0302 38.4404 20.2094 38.3956 20.3907 38.3999ZM61.6093 38.3999C61.7905 38.3954 61.9695 38.44 62.1276 38.5289C62.2857 38.6179 62.4171 38.748 62.5079 38.9056C62.6409 39.1386 62.6766 39.4151 62.6071 39.6745C62.5376 39.9339 62.3687 40.155 62.1372 40.2893C61.9057 40.4239 61.6304 40.4607 61.3719 40.3915C61.1135 40.3223 60.8929 40.1528 60.7586 39.9203C60.6256 39.6873 60.5899 39.4108 60.6594 39.1514C60.7289 38.8921 60.8979 38.6709 61.1293 38.5366C61.2754 38.4514 61.4405 38.4044 61.6093 38.3999ZM30.7961 48.8498C30.7729 49.0451 30.813 49.2428 30.9106 49.4135C31.172 49.8697 31.7033 50.0115 32.1543 49.7501C32.1825 49.7342 32.2115 49.72 32.2414 49.7074L30.9328 48.9489C30.8833 48.9198 30.8457 48.8805 30.7961 48.8498ZM33.936 50.6914C33.9193 50.7016 33.9022 50.7113 33.8848 50.7204C33.7786 50.7795 33.6853 50.8595 33.6106 50.9554C33.5359 51.0514 33.4814 51.1614 33.4501 51.2789C33.4189 51.3964 33.4116 51.519 33.4287 51.6393C33.4459 51.7597 33.4871 51.8754 33.55 51.9795C33.6074 52.0854 33.6857 52.1785 33.7803 52.2532C33.8749 52.3278 33.9837 52.3824 34.1001 52.4136C34.2165 52.4447 34.338 52.4519 34.4573 52.4345C34.5765 52.4171 34.691 52.3757 34.7936 52.3126L35.7657 51.7488L33.9377 50.6897L33.936 50.6914ZM37.4638 52.7294C37.4445 52.7451 37.4245 52.7599 37.404 52.7738C37.2974 52.8328 37.2038 52.9127 37.1287 53.0087C37.0537 53.1046 36.9987 53.2147 36.9672 53.3324C36.9356 53.4501 36.9281 53.5729 36.945 53.6935C36.9619 53.8142 37.003 53.9302 37.0657 54.0346C37.1231 54.1408 37.2016 54.2341 37.2963 54.3089C37.391 54.3837 37.5 54.4384 37.6166 54.4695C37.7332 54.5007 37.8549 54.5078 37.9744 54.4903C38.0938 54.4728 38.2084 54.4311 38.3111 54.3677L39.2985 53.7971L37.4638 52.7328V52.7294Z" fill="#2099F2"/>
</svg>
