<svg width="210" height="210" viewBox="0 0 210 210" fill="none" xmlns="http://www.w3.org/2000/svg">
<path d="M105 78.96C99.8498 78.96 94.8152 80.4872 90.5329 83.3485C86.2507 86.2098 82.9131 90.2767 80.9422 95.0349C78.9713 99.7931 78.4556 105.029 79.4604 110.08C80.4651 115.131 82.9452 119.771 86.5869 123.413C90.2287 127.055 94.8686 129.535 99.9199 130.54C104.971 131.544 110.207 131.029 114.965 129.058C119.723 127.087 123.79 123.749 126.651 119.467C129.513 115.185 131.04 110.15 131.04 105C131.04 101.58 130.366 98.1942 129.058 95.0349C127.749 91.8756 125.831 89.005 123.413 86.5869C120.995 84.1689 118.124 82.2508 114.965 80.9422C111.806 79.6335 108.42 78.96 105 78.96V78.96ZM209.265 53.235C209.21 45.1265 207.717 37.092 204.855 29.505C202.747 23.9532 199.487 18.9115 195.288 14.7124C191.089 10.5134 186.047 7.25253 180.495 5.145C172.908 2.28337 164.874 0.790239 156.765 0.734999C143.22 -7.0408e-07 139.23 0 105 0C70.77 0 66.78 -7.0408e-07 53.235 0.734999C45.1265 0.790239 37.092 2.28337 29.505 5.145C23.9532 7.25253 18.9115 10.5134 14.7124 14.7124C10.5134 18.9115 7.25253 23.9532 5.145 29.505C2.28337 37.092 0.790239 45.1265 0.734999 53.235C-7.0408e-07 66.78 0 70.77 0 105C0 139.23 -7.0408e-07 143.22 0.734999 156.765C0.848021 164.902 2.33913 172.961 5.145 180.6C7.24319 186.126 10.5014 191.139 14.7 195.3C18.881 199.524 23.9336 202.785 29.505 204.855C37.092 207.717 45.1265 209.21 53.235 209.265C66.78 210 70.77 210 105 210C139.23 210 143.22 210 156.765 209.265C164.874 209.21 172.908 207.717 180.495 204.855C186.066 202.785 191.119 199.524 195.3 195.3C199.499 191.139 202.757 186.126 204.855 180.6C207.714 172.976 209.207 164.907 209.265 156.765C210 143.22 210 139.23 210 105C210 70.77 210 66.78 209.265 53.235V53.235ZM182.595 137.235C182.258 143.715 180.875 150.097 178.5 156.135C176.462 161.172 173.431 165.747 169.589 169.589C165.747 173.431 161.172 176.462 156.135 178.5C150.04 180.743 143.622 181.984 137.13 182.175C128.835 182.175 126.63 182.175 105 182.175C83.37 182.175 81.165 182.175 72.87 182.175C66.3782 181.984 59.9601 180.743 53.865 178.5C48.6581 176.565 43.9559 173.478 40.11 169.47C36.3055 165.703 33.3674 161.153 31.5 156.135C29.2484 150.046 28.0414 143.621 27.93 137.13C27.93 128.835 27.93 126.63 27.93 105C27.93 83.37 27.93 81.165 27.93 72.87C28.0414 66.3792 29.2484 59.9538 31.5 53.865C33.435 48.6581 36.5219 43.9559 40.53 40.11C44.3135 36.326 48.8593 33.391 53.865 31.5C59.9601 29.2573 66.3782 28.0162 72.87 27.825V27.825C81.165 27.825 83.37 27.825 105 27.825C126.63 27.825 128.835 27.825 137.13 27.825C143.622 28.0162 150.04 29.2573 156.135 31.5C161.342 33.435 166.044 36.5219 169.89 40.53C173.695 44.2969 176.633 48.8474 178.5 53.865C180.743 59.9601 181.984 66.3782 182.175 72.87C182.175 81.165 182.175 83.37 182.175 105C182.175 126.63 182.91 128.835 182.595 137.13V137.235ZM165.795 59.115C164.545 55.7233 162.574 52.6432 160.018 50.0872C157.462 47.5312 154.382 45.5602 150.99 44.31C146.333 42.6957 141.428 41.9138 136.5 42C128.31 42 126 42 105 42C84 42 81.69 42 73.5 42C68.5468 42.0484 63.6412 42.9727 59.01 44.73C55.6703 45.9234 52.6228 47.814 50.0701 50.2761C47.5175 52.7382 45.5181 55.7155 44.205 59.01C42.6802 63.6863 41.9352 68.5817 42 73.5C42 81.69 42 84 42 105C42 126 42 128.31 42 136.5C42.1041 141.448 43.0266 146.344 44.73 150.99C45.9802 154.382 47.9512 157.462 50.5072 160.018C53.0632 162.574 56.1433 164.545 59.535 165.795C64.015 167.443 68.7294 168.364 73.5 168.525V168.525C81.69 168.525 84 168.525 105 168.525C126 168.525 128.31 168.525 136.5 168.525C141.453 168.477 146.359 167.552 150.99 165.795C154.382 164.545 157.462 162.574 160.018 160.018C162.574 157.462 164.545 154.382 165.795 150.99C167.552 146.359 168.477 141.453 168.525 136.5C168.525 128.31 168.525 126 168.525 105C168.525 84 168.525 81.69 168.525 73.5C168.528 68.5419 167.602 63.6271 165.795 59.01V59.115ZM105 145.11C99.7376 145.11 94.5269 144.072 89.6665 142.055C84.806 140.038 80.3912 137.082 76.675 133.356C72.9588 129.63 70.0143 125.207 68.01 120.341C66.0058 115.476 64.9812 110.262 64.995 105V105C64.995 97.0625 67.3501 89.3035 71.7621 82.7052C76.1741 76.1069 82.4447 70.966 89.7799 67.9333C97.1152 64.9005 105.185 64.1124 112.969 65.6686C120.752 67.2247 127.899 71.0553 133.504 76.6753C139.109 82.2953 142.921 89.452 144.457 97.2395C145.993 105.027 145.184 113.095 142.132 120.422C139.08 127.75 133.922 134.007 127.312 138.401C120.703 142.796 112.937 145.131 105 145.11V145.11ZM147 72.765C144.679 72.5193 142.531 71.4233 140.97 69.6882C139.409 67.9531 138.545 65.7016 138.545 63.3675C138.545 61.0334 139.409 58.7819 140.97 57.0468C142.531 55.3117 144.679 54.2157 147 53.97V53.97C149.321 54.2157 151.469 55.3117 153.03 57.0468C154.591 58.7819 155.455 61.0334 155.455 63.3675C155.455 65.7016 154.591 67.9531 153.03 69.6882C151.469 71.4233 149.321 72.5193 147 72.765Z" fill="#144068"/>
</svg>
