<svg width="210" height="210" viewBox="0 0 210 210" fill="none" xmlns="http://www.w3.org/2000/svg">
<path d="M194.472 0.0014682H15.5282C13.5167 -0.0262999 11.5194 0.340062 9.65034 1.07963C7.78131 1.8192 6.07715 2.91749 4.63518 4.31178C3.19322 5.70607 2.04171 7.36905 1.24639 9.20574C0.451082 11.0424 0.0275535 13.0169 0 15.0163V194.984C0.0275535 196.983 0.451082 198.958 1.24639 200.794C2.04171 202.631 3.19322 204.294 4.63518 205.688C6.07715 207.082 7.78131 208.181 9.65034 208.92C11.5194 209.66 13.5167 210.026 15.5282 209.999H194.472C196.483 210.026 198.481 209.66 200.35 208.92C202.219 208.181 203.923 207.082 205.365 205.688C206.807 204.294 207.958 202.631 208.754 200.794C209.549 198.958 209.972 196.983 210 194.984V15.0163C209.972 13.0169 209.549 11.0424 208.754 9.20574C207.958 7.36905 206.807 5.70607 205.365 4.31178C203.923 2.91749 202.219 1.8192 200.35 1.07963C198.481 0.340062 196.483 -0.0262999 194.472 0.0014682V0.0014682ZM63.6972 175.769H32.007V81.2703H63.6972V175.769ZM47.8521 68.0405C43.4816 68.0405 39.2902 66.3148 36.1998 63.243C33.1094 60.1712 31.3732 56.0049 31.3732 51.6607C31.3732 47.3166 33.1094 43.1503 36.1998 40.0785C39.2902 37.0067 43.4816 35.281 47.8521 35.281C50.1728 35.0194 52.523 35.2479 54.7487 35.9517C56.9744 36.6555 59.0254 37.8187 60.7675 39.365C62.5096 40.9113 63.9034 42.806 64.8578 44.9249C65.8121 47.0438 66.3055 49.3392 66.3055 51.6607C66.3055 53.9823 65.8121 56.2777 64.8578 58.3966C63.9034 60.5155 62.5096 62.4101 60.7675 63.9565C59.0254 65.5028 56.9744 66.666 54.7487 67.3698C52.523 68.0735 50.1728 68.3021 47.8521 68.0405V68.0405ZM177.993 175.769H146.303V125.055C146.303 112.35 141.761 104.055 130.246 104.055C126.683 104.081 123.213 105.192 120.305 107.238C117.396 109.285 115.188 112.168 113.979 115.5C113.152 117.968 112.794 120.567 112.923 123.165V175.664H81.2324C81.2324 175.664 81.2324 89.7752 81.2324 81.1653H112.923V94.5002C115.801 89.5348 119.988 85.4442 125.033 82.6689C130.077 79.8936 135.788 78.5388 141.549 78.7504C162.676 78.7504 177.993 92.2952 177.993 121.38V175.769Z" fill="#144068"/>
</svg>
