<svg width="57" height="58" viewBox="0 0 57 58" fill="none" xmlns="http://www.w3.org/2000/svg">
<path d="M28.2706 22.7856C25.8125 22.7856 23.4096 23.5146 21.3658 24.8802C19.322 26.2458 17.729 28.1869 16.7883 30.4578C15.8477 32.7288 15.6015 35.2277 16.0811 37.6386C16.5606 40.0494 17.7443 42.2639 19.4824 44.002C21.2206 45.7402 23.4351 46.9238 25.8459 47.4034C28.2568 47.8829 30.7557 47.6368 33.0267 46.6961C35.2976 45.7555 37.2387 44.1625 38.6043 42.1187C39.9699 40.0749 40.6988 37.672 40.6988 35.2139C40.6988 31.9177 39.3894 28.7566 37.0587 26.4258C34.7279 24.095 31.5667 22.7856 28.2706 22.7856ZM27.442 33.1425H29.0991C30.1908 33.1537 31.2422 33.5564 32.0621 34.2773C32.8819 34.9983 33.4156 35.9897 33.5662 37.071C33.7167 38.1523 33.474 39.2518 32.8823 40.1693C32.2905 41.0867 31.3891 41.7613 30.3419 42.0702V43.4994C30.3419 44.0488 30.1237 44.5757 29.7353 44.9641C29.3468 45.3526 28.8199 45.5708 28.2706 45.5708C27.7212 45.5708 27.1943 45.3526 26.8059 44.9641C26.4174 44.5757 26.1992 44.0488 26.1992 43.4994V42.2566H24.9564C24.407 42.2566 23.8801 42.0384 23.4917 41.6499C23.1032 41.2615 22.885 40.7346 22.885 40.1852C22.885 39.6359 23.1032 39.109 23.4917 38.7205C23.8801 38.3321 24.407 38.1138 24.9564 38.1138H29.0991C29.209 38.1138 29.3144 38.0702 29.3921 37.9925C29.4697 37.9148 29.5134 37.8094 29.5134 37.6996C29.5134 37.5897 29.4697 37.4843 29.3921 37.4066C29.3144 37.3289 29.209 37.2853 29.0991 37.2853H27.442C26.3503 37.2742 25.2989 36.8715 24.4791 36.1505C23.6592 35.4295 23.1255 34.4382 22.975 33.3568C22.8244 32.2755 23.0671 31.1761 23.6588 30.2586C24.2506 29.3411 25.152 28.6665 26.1992 28.3577V26.9284C26.1992 26.379 26.4174 25.8522 26.8059 25.4637C27.1943 25.0753 27.7212 24.857 28.2706 24.857C28.8199 24.857 29.3468 25.0753 29.7353 25.4637C30.1237 25.8522 30.3419 26.379 30.3419 26.9284V28.1712H31.5848C32.1341 28.1712 32.661 28.3895 33.0495 28.7779C33.4379 29.1664 33.6561 29.6932 33.6561 30.2426C33.6561 30.792 33.4379 31.3188 33.0495 31.7073C32.661 32.0958 32.1341 32.314 31.5848 32.314H27.442C27.3321 32.314 27.2268 32.3576 27.1491 32.4353C27.0714 32.513 27.0277 32.6184 27.0277 32.7283C27.0277 32.8381 27.0714 32.9435 27.1491 33.0212C27.2268 33.0989 27.3321 33.1425 27.442 33.1425V33.1425Z" fill="#144068"/>
<path d="M56.3379 50.6664L52.1951 28.337C51.5497 24.7318 50.0962 21.3197 47.9438 18.3565C45.7913 15.3933 42.9958 12.956 39.7669 11.2274L42.7704 6.21466C43.134 5.58488 43.3254 4.87048 43.3254 4.14328C43.3254 3.41607 43.134 2.70168 42.7704 2.0719C42.4054 1.4397 41.8798 0.915165 41.2469 0.551417C40.614 0.18767 39.8962 -0.0023772 39.1662 0.000520938H17.3753C16.6453 -0.0023772 15.9275 0.18767 15.2945 0.551417C14.6616 0.915165 14.1361 1.4397 13.7711 2.0719C13.4075 2.70168 13.216 3.41607 13.216 4.14328C13.216 4.87048 13.4075 5.58488 13.7711 6.21466L16.671 11.2274C13.4421 12.956 10.6466 15.3933 8.49412 18.3565C6.34167 21.3197 4.88819 24.7318 4.24272 28.337L0.0999663 50.6664C-0.0627411 51.5626 -0.0264783 52.4835 0.206188 53.3641C0.438855 54.2446 0.862236 55.0633 1.44636 55.762C2.03951 56.4744 2.78451 57.045 3.62678 57.4321C4.46905 57.8192 5.38725 58.0129 6.3141 57.9991H50.2273C51.1467 58.0142 52.0578 57.825 52.8952 57.4453C53.7326 57.0656 54.4753 56.5048 55.0697 55.8034C55.6642 55.102 56.0955 54.2774 56.3327 53.389C56.57 52.5007 56.6071 51.5708 56.4415 50.6664H56.3379ZM28.2707 51.785C24.9933 51.785 21.7894 50.8131 19.0643 48.9923C16.3393 47.1714 14.2153 44.5834 12.9611 41.5554C11.7069 38.5275 11.3787 35.1956 12.0181 31.9811C12.6575 28.7667 14.2357 25.814 16.5532 23.4965C18.8707 21.179 21.8234 19.6007 25.0379 18.9613C28.2523 18.3219 31.5842 18.6501 34.6122 19.9043C37.6401 21.1585 40.2282 23.2825 42.049 26.0076C43.8699 28.7327 44.8418 31.9365 44.8418 35.214C44.8418 39.6089 43.0959 43.8238 39.9882 46.9315C36.8805 50.0391 32.6656 51.785 28.2707 51.785Z" fill="#144068"/>
</svg>
