<svg width="116" height="116" viewBox="0 0 116 116" fill="none" xmlns="http://www.w3.org/2000/svg">
<path d="M35.8271 58.0001C29.3021 58.2015 23.9653 60.7792 19.8166 65.7334H11.7209C8.41805 65.7334 5.63888 64.9178 3.38335 63.2865C1.12779 61.6553 0 59.2688 0 56.1272C0 41.9091 2.49721 34.8001 7.49164 34.8001C7.73331 34.8001 8.60935 35.223 10.1198 36.0688C11.6302 36.9146 13.5937 37.7706 16.0104 38.6365C18.4271 39.5025 20.8236 39.9355 23.2 39.9355C25.8986 39.9355 28.5771 39.4723 31.2354 38.5459C31.034 40.0362 30.9334 41.3653 30.9334 42.5334C30.9334 48.132 32.5646 53.2876 35.8271 58.0001ZM100.533 96.4855C100.533 101.319 99.0632 105.135 96.1229 107.934C93.1826 110.734 89.2757 112.133 84.4021 112.133H31.5979C26.7243 112.133 22.8174 110.734 19.8771 107.934C16.9368 105.135 15.4666 101.319 15.4666 96.4855C15.4666 94.3508 15.5371 92.2664 15.6781 90.2323C15.8191 88.1983 16.1011 86.0032 16.524 83.6469C16.9469 81.2907 17.4806 79.1056 18.125 77.0917C18.7694 75.0778 19.6354 73.1143 20.7229 71.2011C21.8104 69.2879 23.059 67.6566 24.4687 66.3073C25.8785 64.958 27.6004 63.8806 29.6344 63.0751C31.6684 62.2695 33.9139 61.8667 36.3709 61.8667C36.7736 61.8667 37.6396 62.2997 38.9687 63.1657C40.2979 64.0317 41.768 64.9983 43.3791 66.0657C44.9903 67.133 47.1452 68.0997 49.8437 68.9657C52.5423 69.8317 55.2611 70.2647 58 70.2647C60.7389 70.2647 63.4577 69.8317 66.1562 68.9657C68.8548 68.0997 71.0097 67.133 72.6208 66.0657C74.2319 64.9983 75.7021 64.0317 77.0312 63.1657C78.3604 62.2997 79.2264 61.8667 79.6291 61.8667C82.0861 61.8667 84.3316 62.2695 86.3656 63.0751C88.3996 63.8806 90.1215 64.958 91.5312 66.3073C92.941 67.6566 94.1896 69.2879 95.2771 71.2011C96.3646 73.1143 97.2306 75.0778 97.875 77.0917C98.5194 79.1056 99.0531 81.2907 99.476 83.6469C99.8989 86.0032 100.181 88.1983 100.322 90.2323C100.463 92.2664 100.533 94.3508 100.533 96.4855ZM38.6666 19.3334C38.6666 23.6028 37.1562 27.248 34.1354 30.2688C31.1146 33.2896 27.4694 34.8001 23.2 34.8001C18.9306 34.8001 15.2854 33.2896 12.2646 30.2688C9.24377 27.248 7.73336 23.6028 7.73336 19.3334C7.73336 15.0639 9.24377 11.4188 12.2646 8.39795C15.2854 5.37712 18.9306 3.8667 23.2 3.8667C27.4694 3.8667 31.1146 5.37712 34.1354 8.39795C37.1562 11.4188 38.6666 15.0639 38.6666 19.3334ZM81.2 42.5334C81.2 48.9376 78.9344 54.4053 74.4031 58.9365C69.8719 63.4678 64.4042 65.7334 58 65.7334C51.5958 65.7334 46.1281 63.4678 41.5969 58.9365C37.0656 54.4053 34.8 48.9376 34.8 42.5334C34.8 36.1292 37.0656 30.6615 41.5969 26.1303C46.1281 21.599 51.5958 19.3334 58 19.3334C64.4042 19.3334 69.8719 21.599 74.4031 26.1303C78.9344 30.6615 81.2 36.1292 81.2 42.5334ZM116 56.1272C116 59.2688 114.872 61.6553 112.617 63.2865C110.361 64.9178 107.582 65.7334 104.279 65.7334H96.1833C92.0347 60.7792 86.6979 58.2015 80.1729 58.0001C83.4354 53.2876 85.0666 48.132 85.0666 42.5334C85.0666 41.3653 84.966 40.0362 84.7646 38.5459C87.4229 39.4723 90.1014 39.9355 92.8 39.9355C95.1764 39.9355 97.5729 39.5025 99.9896 38.6365C102.406 37.7706 104.37 36.9146 105.88 36.0688C107.391 35.223 108.267 34.8001 108.508 34.8001C113.503 34.8001 116 41.9091 116 56.1272ZM108.267 19.3334C108.267 23.6028 106.756 27.248 103.735 30.2688C100.715 33.2896 97.0694 34.8001 92.8 34.8001C88.5306 34.8001 84.8854 33.2896 81.8646 30.2688C78.8438 27.248 77.3334 23.6028 77.3334 19.3334C77.3334 15.0639 78.8438 11.4188 81.8646 8.39795C84.8854 5.37712 88.5306 3.8667 92.8 3.8667C97.0694 3.8667 100.715 5.37712 103.735 8.39795C106.756 11.4188 108.267 15.0639 108.267 19.3334Z" fill="#2099F2"/>
</svg>
