<svg width="230" height="209" viewBox="0 0 230 209" fill="none" xmlns="http://www.w3.org/2000/svg">
<path d="M230 24.7265C221.54 28.9239 212.454 31.7615 202.9 33.037C212.65 26.5086 220.12 16.1634 223.647 3.85085C214.385 10.0019 204.248 14.3322 193.678 16.6537C185.075 6.40106 172.808 0 159.237 0C133.188 0 112.061 23.6124 112.061 52.7563C112.061 56.8857 112.477 60.9142 113.277 64.7821C74.0631 62.5785 39.2974 41.5756 16.0269 9.66151C11.9635 17.4558 9.63769 26.5181 9.63769 36.1871C9.63769 54.488 17.9684 70.635 30.6268 80.0936C23.1333 79.8339 15.8042 77.5723 9.25218 73.4978V74.1644C9.25218 99.7278 25.5135 121.043 47.0995 125.891C43.1342 127.106 38.9728 127.741 34.6677 127.741C31.6238 127.741 28.6707 127.419 25.7858 126.812C31.79 147.764 49.2152 163.016 69.856 163.447C53.7079 177.601 33.3607 186.038 11.2613 186.038C7.45497 186.038 3.69308 185.784 0 185.286C20.8838 200.259 45.6799 209 72.3262 209C159.109 209 206.571 128.611 206.571 58.8965C206.571 56.6078 206.525 54.3361 206.427 52.0726C215.674 44.594 223.656 35.3341 230 24.7265V24.7265Z" fill="#144068"/>
</svg>
