<svg width="62" height="58" viewBox="0 0 62 58" fill="none" xmlns="http://www.w3.org/2000/svg">
<path d="M58.7368 48.3333V51.5556C58.7368 55.1161 55.8163 58 52.2105 58H6.52632C2.92053 58 0 55.1161 0 51.5556V6.44444C0 2.88389 2.92053 0 6.52632 0H52.2105C55.8163 0 58.7368 2.88389 58.7368 6.44444V9.66667H29.3684C25.7626 9.66667 22.8421 12.5506 22.8421 16.1111V41.8889C22.8421 45.4494 25.7626 48.3333 29.3684 48.3333H58.7368ZM29.3684 41.8889H62V16.1111H29.3684V41.8889ZM42.4211 33.8333C39.7126 33.8333 37.5263 31.6744 37.5263 29C37.5263 26.3256 39.7126 24.1667 42.4211 24.1667C45.1295 24.1667 47.3158 26.3256 47.3158 29C47.3158 31.6744 45.1295 33.8333 42.4211 33.8333Z" fill="#144068"/>
</svg>
