<svg width="234" height="234" viewBox="0 0 234 234" fill="none" xmlns="http://www.w3.org/2000/svg">
<g clip-path="url(#clip0_362_1520)">
<path fill-rule="evenodd" clip-rule="evenodd" d="M185.106 165.217C182.286 173.196 171.077 179.808 162.139 181.738C156.02 183.025 148.04 184.062 121.153 172.912C90.9557 160.405 49.023 115.844 49.023 86.1847C49.023 71.0917 57.7278 53.5069 72.9495 53.5069C80.2737 53.5069 81.8883 53.6454 84.2985 59.4369C87.1182 66.2463 93.9978 83.0251 94.8168 84.745C98.1981 91.8001 91.3769 95.9294 86.4278 102.084C84.8483 103.932 83.0583 105.933 85.059 109.373C87.048 112.743 93.9276 123.947 104.036 132.945C117.094 144.586 127.682 148.298 131.473 149.878C134.293 151.048 137.662 150.78 139.721 148.581C142.331 145.761 145.571 141.079 148.871 136.47C151.199 133.158 154.159 132.746 157.26 133.916C159.354 134.641 185.971 147.009 187.095 148.986C187.925 150.426 187.926 157.237 185.106 165.217ZM117.023 0H116.965C52.4627 0 0 52.4745 0 117C0 142.588 8.24858 166.314 22.2769 185.56L7.69866 229.053L52.6618 214.673C71.7412 227.32 94.1332 234.043 117.023 234C181.525 234 234 181.525 234 117C234 52.4745 181.525 0 117.023 0" fill="#144068"/>
</g>
<defs>
<clipPath id="clip0_362_1520">
<rect width="234" height="234" fill="white"/>
</clipPath>
</defs>
</svg>
